<!DOCTYPE svg PUBLIC "-//W3C//DTD SVG 20010904//EN" "http://www.w3.org/TR/2001/REC-SVG-20010904/DTD/svg10.dtd">
<svg version="1.0" xmlns="http://www.w3.org/2000/svg" width="477px" height="182px" viewBox="0 0 4770 1820" preserveAspectRatio="xMidYMid meet">
<g id="layer1" fill="#000000" stroke="none">
 <path d="M2095 1684 c-292 -21 -374 -29 -525 -50 -410 -58 -710 -141 -975 -269 -208 -101 -334 -206 -401 -335 -25 -49 -28 -66 -28 -145 0 -82 3 -96 32 -152 162 -314 800 -553 1697 -635 186 -17 796 -17 985 1 888 80 1530 321 1692 634 29 56 32 70 32 152 0 79 -3 96 -28 145 -67 129 -193 234 -401 335 -315 152 -718 250 -1240 301 -140 13 -728 26 -840 18z"/>
 </g>

</svg>